<?xml version="1.0" standalone="no"?>
<!DOCTYPE svg PUBLIC "-//W3C//DTD SVG 20010904//EN"
 "http://www.w3.org/TR/2001/REC-SVG-20010904/DTD/svg10.dtd">
<svg version="1.0" xmlns="http://www.w3.org/2000/svg"
 width="512.000000pt" height="512.000000pt" viewBox="0 0 512.000000 512.000000"
 preserveAspectRatio="xMidYMid meet">
<metadata>
Created by potrace 1.11, written by Peter Selinger 2001-2013
</metadata>
<g transform="translate(0.000000,512.000000) scale(0.100000,-0.100000)"
fill="#000000" stroke="none">
<path d="M0 2560 l0 -2560 2560 0 2560 0 0 2560 0 2560 -2560 0 -2560 0 0
-2560z m1765 1004 c29 -13 68 -81 357 -617 178 -331 337 -633 353 -670 l28
-68 22 53 c12 29 39 87 60 128 45 89 591 1115 608 1141 25 41 66 49 241 49
l166 0 0 -1015 0 -1015 -170 0 -171 0 3 724 c3 669 2 722 -13 698 -9 -15 -139
-259 -289 -542 -150 -283 -286 -536 -302 -562 -20 -32 -41 -51 -69 -62 -75
-30 -180 -16 -221 30 -9 11 -152 273 -319 584 -166 311 -305 568 -308 572 -3
4 -5 -319 -3 -717 l3 -725 -170 0 -171 0 0 1015 0 1015 166 0 c129 0 173 -3
199 -16z"/>
</g>
</svg>
